<?xml version="1.0" encoding="UTF-8"?>
<svg enable-background="new 0 0 128 128" version="1.1" viewBox="0 0 128 128" xmlns="http://www.w3.org/2000/svg"><linearGradient id="a" x1="47.5" x2="51" y1="11.5" y2="45.1" gradientUnits="userSpaceOnUse"><stop stop-color="#01AB46" offset=".17"/><stop stop-color="#089E42" offset=".345"/><stop stop-color="#1A7A37" offset=".671"/><stop stop-color="#2F502A" offset="1"/></linearGradient><path d="m35.8 48.6s5.84-8.38 5.42-11.6c-0.42-3.24-1.55-3.94-4.79-5.07s-5.14-2.89-5.14-2.89-2.35-11-2.11-12.4c0.28-1.62 6.12-12.5 20-12.5 13.4 0 18.9 11.2 18.2 19.8-0.63 7.81-3.52 10-5.56 16.5-2.04 6.48-3.03 10.4-3.03 10.4l-12 2.46-10.1-2.18-0.83-2.46z" fill="url(#a)"/><path d="m53.2 96.5s0.75 7.64-0.02 8.57c-0.78 0.93-12.4 3.63-13.8 4.62-1.43 1.07-0.82 3.47 2.22 6.24s5.59 3.25 7.34 2.53c2.06-0.84 5.63-3.57 7.23-4.79 1.28-0.98 3.2-3.06 3.46-4.73 0.27-1.67-0.56-11.5-0.56-11.5l-5.91-0.96z" fill="#FF5D10"/><path d="m68.4 99.2s1.1 8.92 0.56 10c-1.41 2.82-9.47 9.16-10 11.3-0.42 1.69 3.8 5.07 8.02 5.16 5.64 0.13 9.17-2.1 9.57-3.33 0.56-1.74-1.55-12-1.83-12.5s0.14-15.1 0.14-15.1l-6.46 4.5z" fill="#FF5D10"/><path d="m98.7 54.5s4.8-0.94 4.82-4.2c0.01-3.26-1.74-1.84-1.76-4.21s4.24-2.93 7.04-0.94c2.21 1.57 7.26 6.68 6.98 17.3-0.38 14.4-7.92 25-19.8 31.5-9.68 5.31-24 4.68-24 4.68l26.7-44.1z" fill="#5E6367"/><path d="m85.7 55.7c2.35-0.28 12.7-3.54 16.3-2.6 4.43 1.13 8.85 4.25 7.95 14.2-1.16 12.8-10.3 20.7-14.2 22.8-7.03 3.84-13.8 3.93-13.8 3.93s1.39-38 3.73-38.3z" fill="#B0B0B1"/><path d="m7.12 25.1c0 1.2 7.46 4.72 14.5 5.56s11.4-0.28 11.4-0.28-1.2-3.03-1.2-5.28 1.16-7.9-0.63-9.22c-1.62-1.2-2.96 1.27-3.94 1.97-0.99 0.7-3.8 2.67-8.17 2.82s-8.17-0.56-9.71 0.28-2.25 2.88-2.25 4.15z" fill="#FFBF18"/><path d="m50.2 20.8c-0.42 1.75-1.61 3.12-3.94 2.75-2.18-0.35-3.24-2.6-2.6-4.79 0.5-1.73 1.79-2.9 3.97-2.53 2.5 0.42 2.97 2.88 2.57 4.57z" fill="#2D2B33"/><path d="m50.9 25.6c2.47-0.78 4.3-0.79 4.04-2.47-0.3-1.93-3.51-1.38-5.55-0.3-2.17 1.15-4.99 3.11-3.74 4.7 1.33 1.69 3.83-1.48 5.25-1.93z" fill="#73DF86"/><path d="m33.2 51.6s2.16 9.43 13 7.84c7.71-1.14 13.4-4.97 13.4-4.97l0.09-6.29s-5.12 3-11.3 2.91c-6.38-0.09-11.9-3.38-11.9-3.38l-3.28 3.89z" fill="#fff"/><path d="m26 69.1c-0.75 20.4 14.7 30.2 39.1 30.6 27.1 0.47 37.6-15.4 39.2-25.4 1.69-10.4-5.07-12.7-5.07-12.7s6.76-2.82 3.73-9.5c-1.41-0.28-8.35 1.57-21.5 0.21-13.1-1.35-22.1 0.94-22.1 0.94s-3.28 3.57-12.7 3.1c-11.2-0.56-13.4-4.97-13.4-4.97s-6.85 5.01-7.32 17.7z" fill="#84574E"/><path d="m52 73.1c2.28 7.9 10.4 12.7 22.5 12.1 11-0.51 19-8.17 20.3-14.9 1.43-7.34-1.55-10.1-1.55-10.1s6.34-2.3 6.34-6.76c-3.57-2.16-14.9-3.66-27.5-4.13-8.16-0.3-12.8 2.72-12.8 2.72s-11.6 6.48-7.32 21.1z" fill="#B79277"/><path d="m76 54.8" fill="#B0B0B1"/></svg>
